<svg width="16" height="16" viewBox="0 0 16 16" fill="none" xmlns="http://www.w3.org/2000/svg">
<g clip-path="url(#clip0_902_960)">
<path d="M11.8333 8.83333H8.83333V11.8333C8.83333 12.0543 8.74554 12.2663 8.58926 12.4226C8.43298 12.5789 8.22101 12.6667 8 12.6667C7.77899 12.6667 7.56702 12.5789 7.41074 12.4226C7.25446 12.2663 7.16667 12.0543 7.16667 11.8333V8.83333H4.16667C3.94565 8.83333 3.73369 8.74554 3.57741 8.58926C3.42113 8.43298 3.33333 8.22101 3.33333 8C3.33333 7.77899 3.42113 7.56702 3.57741 7.41074C3.73369 7.25446 3.94565 7.16667 4.16667 7.16667H7.16667V4.16667C7.16667 3.94565 7.25446 3.73369 7.41074 3.57741C7.56702 3.42113 7.77899 3.33333 8 3.33333C8.22101 3.33333 8.43298 3.42113 8.58926 3.57741C8.74554 3.73369 8.83333 3.94565 8.83333 4.16667V7.16667H11.8333C12.0543 7.16667 12.2663 7.25446 12.4226 7.41074C12.5789 7.56702 12.6667 7.77899 12.6667 8C12.6667 8.22101 12.5789 8.43298 12.4226 8.58926C12.2663 8.74554 12.0543 8.83333 11.8333 8.83333ZM8 0C3.58 0 0 3.58 0 8C0 12.42 3.58 16 8 16C12.42 16 16 12.42 16 8C16 3.58 12.42 0 8 0Z" fill="#C19008"/>
</g>
<defs>
<clipPath id="clip0_902_960">
<rect width="16" height="16" fill="white"/>
</clipPath>
</defs>
</svg>
