<svg width="25" height="25" viewBox="0 0 25 25" fill="#587052" xmlns="http://www.w3.org/2000/svg">
<path d="M14.5709 19.951C16.1303 18.3917 16.6511 16.0896 16.1261 14.101L20.5626 9.45208L23.6064 9.17396L23.5886 9.15521C23.6379 9.1642 23.6886 9.16122 23.7364 9.14654C23.7843 9.13186 23.8279 9.10589 23.8636 9.07083C23.8937 9.04108 23.9176 9.00567 23.934 8.96665C23.9503 8.92762 23.9588 8.88575 23.9589 8.84344C23.959 8.80113 23.9507 8.75922 23.9345 8.72013C23.9184 8.68103 23.8946 8.64551 23.8647 8.61562L16.3855 1.13541C16.3248 1.07512 16.2427 1.04137 16.1572 1.04157C16.0716 1.04176 15.9897 1.07589 15.9293 1.13646C15.8944 1.17254 15.8686 1.21636 15.8539 1.26434C15.8393 1.31232 15.8362 1.36309 15.8449 1.4125L15.8272 1.39375L15.5491 4.43854L10.8991 8.875C8.91052 8.34896 6.60844 8.87083 5.04907 10.4292L9.01677 14.3969L3.46261 19.951C2.66886 20.7448 0.740733 23.0292 1.0824 23.9187C1.97094 24.2604 4.25636 22.3312 5.04907 21.5375L10.6032 15.9833L14.5709 19.951Z" />
</svg>
