<svg width="8" height="8" viewBox="0 0 8 8" fill="none" xmlns="http://www.w3.org/2000/svg">
<g clip-path="url(#clip0_1785_3383)">
<path d="M5.05992 4.00016L7.44658 1.6135C7.73992 1.32016 7.73992 0.846829 7.44658 0.553496C7.15325 0.260163 6.67992 0.260163 6.38658 0.553496L3.99992 2.94016L1.61325 0.553496C1.31992 0.260163 0.846585 0.260163 0.553252 0.553496C0.259919 0.846829 0.259919 1.32016 0.553252 1.6135L2.93992 4.00016L0.553252 6.38683C0.259919 6.68016 0.259919 7.1535 0.553252 7.44683C0.699919 7.5935 0.889919 7.66683 1.08325 7.66683C1.27659 7.66683 1.46659 7.5935 1.61325 7.44683L3.99992 5.06016L6.38658 7.44683C6.53325 7.5935 6.72325 7.66683 6.91658 7.66683C7.10992 7.66683 7.29992 7.5935 7.44658 7.44683C7.73992 7.1535 7.73992 6.68016 7.44658 6.38683L5.05992 4.00016Z" fill="#C19008"/>
</g>
<defs>
<clipPath id="clip0_1785_3383">
<rect width="8" height="8" fill="white"/>
</clipPath>
</defs>
</svg>
