<svg width="22" height="23" viewBox="0 0 22 23" fill="none" xmlns="http://www.w3.org/2000/svg">
<path d="M12.386 6.01799L16.982 10.614L6.097 21.499L0 22.999L1.501 16.903L12.386 6.01799ZM21.048 1.95199C21.35 2.25364 21.5896 2.61186 21.753 3.00617C21.9165 3.40048 22.0006 3.82314 22.0006 4.24999C22.0006 4.67683 21.9165 5.09949 21.753 5.4938C21.5896 5.88811 21.35 6.24633 21.048 6.54799L18.75 8.84799L14.154 4.24999L16.452 1.95099C16.7537 1.64899 17.1119 1.40941 17.5062 1.24595C17.9005 1.08249 18.3232 0.998352 18.75 0.998352C19.1768 0.998352 19.5995 1.08249 19.9938 1.24595C20.3881 1.40941 20.7463 1.64899 21.048 1.95099V1.95199Z" fill="#C19008"/>
</svg>
