<svg width="24" height="24" viewBox="0 0 24 24" fill="#C19008" xmlns="http://www.w3.org/2000/svg">
    <path d="M12 14C12.5304 14 13.0391 13.7893 13.4142 13.4142C13.7893 13.0391 14 12.5304 14 12V3C14 2.46957 13.7893 1.96086 13.4142 1.58579C13.0391 1.21071 12.5304 1 12 1C11.4695 1 10.9608 1.21071 10.5858 1.58579C10.2107 1.96086 9.99998 2.46957 9.99998 3V12C9.99998 12.5304 10.2107 13.0391 10.5858 13.4142C10.9608 13.7893 11.4695 14 12 14ZM23 12C23 14.938 21.856 17.701 19.778 19.778C18.7591 20.8028 17.5469 21.6152 16.2118 22.1683C14.8767 22.7214 13.4451 23.0041 12 23C10.5549 23.0041 9.12327 22.7214 7.78816 22.1683C6.45304 21.6152 5.24091 20.8028 4.22198 19.778C3.19719 18.7591 2.38473 17.5469 1.83167 16.2118C1.2786 14.8767 0.995916 13.4451 0.999982 12C0.999982 9.062 2.14398 6.299 4.22198 4.222C4.59713 3.84698 5.10589 3.63635 5.63634 3.63645C5.89899 3.63649 6.15906 3.68827 6.4017 3.78883C6.64434 3.88938 6.86479 4.03675 7.05048 4.2225C7.23617 4.40825 7.38346 4.62876 7.48392 4.87144C7.58439 5.11412 7.63608 5.3742 7.63603 5.63685C7.63599 5.8995 7.58421 6.15957 7.48365 6.40221C7.3831 6.64485 7.23574 6.86531 7.04998 7.051C6.39797 7.69936 5.88106 8.47062 5.52917 9.32012C5.17728 10.1696 4.99742 11.0805 4.99998 12C4.99998 13.87 5.72798 15.627 7.04998 16.949C7.69841 17.6013 8.4698 18.1184 9.31948 18.4705C10.1692 18.8225 11.0803 19.0025 12 19C13.87 19 15.627 18.272 16.949 16.95C17.6012 16.3016 18.1184 15.5302 18.4704 14.6805C18.8225 13.8308 19.0025 12.9197 19 12C19 10.13 18.272 8.373 16.95 7.051C16.7642 6.86531 16.6169 6.64485 16.5163 6.40221C16.4158 6.15957 16.364 5.8995 16.3639 5.63685C16.3639 5.3742 16.4156 5.11412 16.516 4.87144C16.6165 4.62876 16.7638 4.40825 16.9495 4.2225C17.1352 4.03675 17.3556 3.88938 17.5983 3.78883C17.8409 3.68827 18.101 3.63649 18.3636 3.63645C18.6263 3.6364 18.8864 3.68809 19.129 3.78856C19.3717 3.88903 19.5922 4.03631 19.778 4.222C20.8028 5.24093 21.6152 6.45306 22.1683 7.78817C22.7214 9.12329 23.004 10.5549 23 12Z" fill="#C19008"/>
    </svg>
    