<svg width="24" height="24" viewBox="0 0 24 24" fill="none"  xmlns="http://www.w3.org/2000/svg">
<path d="M5.94012 6.49998C6.86012 6.49998 7.77012 6.86998 8.43012 7.51998L9.91012 8.95998L12.0001 11L14.0901 8.95998L15.5701 7.51998C16.2371 6.87091 17.1295 6.50535 18.0601 6.49998C18.5501 6.49998 19.2601 6.60998 19.9101 7.12998C20.228 7.37594 20.4891 7.68744 20.6759 8.04331C20.8626 8.39918 20.9706 8.79108 20.9924 9.19239C21.0142 9.59369 20.9494 9.99499 20.8024 10.369C20.6553 10.743 20.4294 11.081 20.1401 11.36L20.0701 11.43L20.0001 11.51C19.9401 11.58 14.4101 17.73 12.0001 20.26C9.59012 17.72 4.06012 11.57 4.00012 11.51L3.94012 11.43L3.86012 11.36C3.57328 11.0825 3.34837 10.7475 3.20015 10.377C3.05194 10.0064 2.98377 9.60873 3.00012 9.20998C3.05116 8.46817 3.38424 7.77404 3.93097 7.27008C4.4777 6.76612 5.19661 6.49056 5.94012 6.49998ZM18.0601 3.49998C16.3487 3.50594 14.7066 4.17643 13.4801 5.36998L12.0001 6.80998L10.5201 5.36998C9.29364 4.17643 7.65149 3.50594 5.94012 3.49998C4.61012 3.49998 3.29012 3.91998 2.21012 4.78998C1.56112 5.30231 1.02917 5.94749 0.649935 6.68224C0.270699 7.41699 0.052945 8.22433 0.0112762 9.05013C-0.0303925 9.87593 0.104987 10.7011 0.408336 11.4703C0.711685 12.2395 1.17599 12.9349 1.77012 13.51C1.77012 13.51 8.06012 20.52 10.2501 22.77C10.7201 23.26 11.3601 23.5 12.0001 23.5C12.6401 23.5 13.2801 23.26 13.7501 22.77C15.9401 20.52 22.2301 13.51 22.2301 13.51C22.8242 12.9349 23.2886 12.2395 23.5919 11.4703C23.8953 10.7011 24.0306 9.87593 23.989 9.05013C23.9473 8.22433 23.7295 7.41699 23.3503 6.68224C22.9711 5.94749 22.4391 5.30231 21.7901 4.78998C20.7313 3.94526 19.4145 3.48986 18.0601 3.49998Z" />
</svg>
