<svg width="24" height="24" viewBox="0 0 24 24" fill="none" xmlns="http://www.w3.org/2000/svg">
    <path
        d="M5.94 6.50004C6.86 6.50004 7.77 6.87004 8.43 7.52004L9.91 8.96004L12 11L14.09 8.96004L15.57 7.52004C16.237 6.87097 17.1294 6.50541 18.06 6.50004C18.55 6.50004 19.26 6.61004 19.91 7.13004C20.2278 7.376 20.489 7.6875 20.6758 8.04337C20.8625 8.39924 20.9705 8.79114 20.9923 9.19245C21.0141 9.59375 20.9493 9.99505 20.8022 10.3691C20.6552 10.7431 20.4293 11.0811 20.14 11.36L20.07 11.43L20 11.51C19.94 11.58 14.41 17.73 12 20.26C9.59 17.72 4.06 11.57 4 11.51L3.94 11.43L3.86 11.36C3.57316 11.0826 3.34825 10.7476 3.20003 10.377C3.05182 10.0065 2.98365 9.60879 3 9.21004C3.05104 8.46823 3.38412 7.7741 3.93085 7.27014C4.47758 6.76618 5.19649 6.49062 5.94 6.50004ZM18.06 3.50004C16.3486 3.506 14.7065 4.17649 13.48 5.37004L12 6.81004L10.52 5.37004C9.29352 4.17649 7.65137 3.506 5.94 3.50004C4.61 3.50004 3.29 3.92004 2.21 4.79004C1.561 5.30237 1.02905 5.94755 0.649813 6.6823C0.270577 7.41705 0.0528229 8.22439 0.0111542 9.05019C-0.0305146 9.87599 0.104865 10.7012 0.408214 11.4703C0.711563 12.2395 1.17587 12.935 1.77 13.51C1.77 13.51 8.06 20.52 10.25 22.77C10.72 23.26 11.36 23.5 12 23.5C12.64 23.5 13.28 23.26 13.75 22.77C15.94 20.52 22.23 13.51 22.23 13.51C22.8241 12.935 23.2884 12.2395 23.5918 11.4703C23.8951 10.7012 24.0305 9.87599 23.9888 9.05019C23.9472 8.22439 23.7294 7.41705 23.3502 6.6823C22.9709 5.94755 22.439 5.30237 21.79 4.79004C20.7312 3.94533 19.4144 3.48992 18.06 3.50004Z"
        fill="#C38F00" />
</svg>
    