<svg width="16" height="8" viewBox="0 0 16 8" fill="none" xmlns="http://www.w3.org/2000/svg">
<path d="M3.99978 5.91668H4.00008C5.05682 5.91668 5.91675 5.05675 5.91675 4.00001C5.91675 2.94327 5.05682 2.08334 4.00008 2.08334C2.94334 2.08334 2.08341 2.94327 2.08341 4.00001L2.08341 4.00031C2.08402 4.50837 2.28612 4.99546 2.64538 5.35471C3.00463 5.71397 3.49172 5.91607 3.99978 5.91668ZM7.58695 2.90626L7.64095 3.08334H7.82608H15.7501V4.91668H14.6667H14.4167V5.16668V7.08334H12.2501V5.16668V4.91668H12.0001H7.82608H7.64095L7.58695 5.09376C7.32481 5.95344 6.76264 6.69037 6.00281 7.17038C5.24297 7.65039 4.33601 7.84154 3.44708 7.70902C2.55815 7.57651 1.74638 7.12914 1.15958 6.44838C0.572787 5.76763 0.25 4.89876 0.25 4.00001C0.25 3.10126 0.572787 2.23239 1.15958 1.55164C1.74638 0.87088 2.55815 0.423512 3.44708 0.290996C4.33601 0.158479 5.24297 0.349629 6.00281 0.829637C6.76264 1.30965 7.32481 2.04658 7.58695 2.90626Z" fill="#191919" stroke="white" stroke-width="0.5"/>
</svg>
