<svg width="28" height="29" viewBox="0 0 28 29" fill="none" xmlns="http://www.w3.org/2000/svg">
<g clip-path="url(#clip0_1785_4464)">
<path d="M14 14.6729C20.4435 14.6729 25.6666 19.896 25.6666 26.3395V28.6729H2.33331V26.3395C2.33331 19.896 7.55648 14.6729 14 14.6729ZM14 13.5062C12.2982 13.5062 10.6661 12.8301 9.46271 11.6268C8.25935 10.4234 7.58331 8.79132 7.58331 7.08952C7.58331 5.38771 8.25935 3.75561 9.46271 2.55225C10.6661 1.34889 12.2982 0.672852 14 0.672852C15.7018 0.672852 17.3339 1.34889 18.5372 2.55225C19.7406 3.75561 20.4166 5.38771 20.4166 7.08952C20.4166 8.79132 19.7406 10.4234 18.5372 11.6268C17.3339 12.8301 15.7018 13.5062 14 13.5062Z" fill="#CDCDCD"/>
</g>
<defs>
<clipPath id="clip0_1785_4464">
<rect width="28" height="28" fill="white" transform="translate(0 0.672852)"/>
</clipPath>
</defs>
</svg>
