<svg width="16" height="16" viewBox="0 0 16 16" fill="none" xmlns="http://www.w3.org/2000/svg">
<g clip-path="url(#clip0_1657_99)">
<path d="M15.7334 12.3336L9.75337 1.68689C9.57991 1.3759 9.32656 1.11686 9.0195 0.936532C8.71244 0.756207 8.3628 0.661133 8.00671 0.661133C7.65061 0.661133 7.30097 0.756207 6.99391 0.936532C6.68685 1.11686 6.4335 1.3759 6.26004 1.68689L0.266706 12.3336C0.0953378 12.6383 0.00629193 12.9825 0.00833517 13.3321C0.0103784 13.6817 0.10344 14.0248 0.278359 14.3276C0.453278 14.6303 0.704023 14.8823 1.00591 15.0587C1.3078 15.2351 1.65042 15.3298 2.00004 15.3336H14C15.5267 15.3336 16.4934 13.6736 15.7334 12.3336ZM10.7067 11.6269C10.894 11.8144 10.9992 12.0686 10.9992 12.3336C10.9992 12.5986 10.894 12.8527 10.7067 13.0402C10.5192 13.2275 10.265 13.3327 10 13.3327C9.73504 13.3327 9.48087 13.2275 9.29337 13.0402L7.99337 11.7469L6.70004 13.0402C6.51254 13.2275 6.25837 13.3327 5.99337 13.3327C5.72837 13.3327 5.47421 13.2275 5.28671 13.0402C5.09944 12.8527 4.99425 12.5986 4.99425 12.3336C4.99425 12.0686 5.09944 11.8144 5.28671 11.6269L6.58004 10.3336L5.28671 9.04022C5.09944 8.85272 4.99425 8.59855 4.99425 8.33355C4.99425 8.06855 5.09944 7.81439 5.28671 7.62689C5.47421 7.43962 5.72837 7.33443 5.99337 7.33443C6.25837 7.33443 6.51254 7.43962 6.70004 7.62689L8.00004 8.92022L9.30004 7.62689C9.48754 7.43962 9.74171 7.33443 10.0067 7.33443C10.2717 7.33443 10.5259 7.43962 10.7134 7.62689C10.9006 7.81439 11.0058 8.06855 11.0058 8.33355C11.0058 8.59855 10.9006 8.85272 10.7134 9.04022L9.42004 10.3336L10.7134 11.6269H10.7067Z" fill="#CC0000"/>
</g>
<defs>
<clipPath id="clip0_1657_99">
<rect width="16" height="16" fill="white"/>
</clipPath>
</defs>
</svg>
