<svg width="16" height="16" viewBox="0 0 16 16" fill="none" xmlns="http://www.w3.org/2000/svg">
<path d="M15.4134 6.58011L9.41336 0.580111C9.03722 0.205169 8.52778 -0.00537109 7.99669 -0.00537109C7.4656 -0.00537109 6.95616 0.205169 6.58002 0.580111L0.580023 6.58011C0.393366 6.76649 0.245284 6.98783 0.14425 7.23149C0.0432155 7.47515 -0.00878906 7.73634 -0.00878906 8.00011C-0.00878906 8.26389 0.0432155 8.52507 0.14425 8.76873C0.245284 9.01239 0.393366 9.23374 0.580023 9.42011L6.58002 15.4201C6.7664 15.6068 6.98775 15.7549 7.2314 15.8559C7.47506 15.9569 7.73625 16.0089 8.00002 16.0089C8.2638 16.0089 8.52498 15.9569 8.76864 15.8559C9.0123 15.7549 9.23365 15.6068 9.42002 15.4201L15.42 9.42011C15.6067 9.23374 15.7548 9.01239 15.8558 8.76873C15.9568 8.52507 16.0088 8.26389 16.0088 8.00011C16.0088 7.73634 15.9568 7.47515 15.8558 7.23149C15.7548 6.98783 15.6067 6.76649 15.42 6.58011H15.4134ZM8.00002 12.6734C7.72331 12.6734 7.45794 12.5635 7.26228 12.3679C7.06661 12.1722 6.95669 11.9068 6.95669 11.6301C6.95669 11.3534 7.06661 11.088 7.26228 10.8924C7.45794 10.6967 7.72331 10.5868 8.00002 10.5868C8.27673 10.5868 8.54211 10.6967 8.73777 10.8924C8.93343 11.088 9.04336 11.3534 9.04336 11.6301C9.04336 11.9068 8.93343 12.1722 8.73777 12.3679C8.54211 12.5635 8.27673 12.6734 8.00002 12.6734ZM9.04669 8.52678C9.04669 8.80349 8.93677 9.06886 8.7411 9.26453C8.54544 9.46019 8.28007 9.57011 8.00336 9.57011C7.72665 9.57011 7.46127 9.46019 7.26561 9.26453C7.06994 9.06886 6.96002 8.80349 6.96002 8.52678V4.36678C6.96002 4.09007 7.06994 3.82469 7.26561 3.62903C7.46127 3.43337 7.72665 3.32344 8.00336 3.32344C8.28007 3.32344 8.54544 3.43337 8.7411 3.62903C8.93677 3.82469 9.04669 4.09007 9.04669 4.36678V8.52678Z" fill="#BD5B00"/>
</svg>
